<?xml version="1.0" encoding="UTF-8"?>
<svg width="500px" height="500px" viewBox="0 0 500 500" version="1.1" xmlns="http://www.w3.org/2000/svg" xmlns:xlink="http://www.w3.org/1999/xlink">
    <title>strata-mark only</title>
    <g id="strata-mark-only" stroke="none" stroke-width="1" fill="none" fill-rule="evenodd">
        <g id="strata-git-logo" transform="translate(-72.265625, -59.570312)">
            <g id="STRATA-LOGO-Polygon" transform="translate(322.064996, 309.570313) rotate(60.000000) translate(-322.064996, -309.570313) translate(107.938483, 61.307688)" fill="#AAA">
                <polygon id="Polygon" points="214.126514 0 428.253027 124.131312 428.253027 164.951182 428.253027 372.393937 214.126514 496.525249 2.97160232e-14 372.393937 0 124.131312"></polygon>
            </g>
            <g id="S-shape" transform="translate(187.556181, 134.597835)">
                <path d="M61.7716744,274.180955 C49.4873971,274.180955 39.5290228,264.206873 39.5290228,251.90322 C39.5290228,239.599567 49.4873971,229.625485 61.7716744,229.625485 L61.7716744,229.625485 L269.369755,229.625485 C281.654033,229.625485 291.612407,239.599567 291.612407,251.90322 C291.612407,264.206873 281.654033,274.180955 269.369755,274.180955 L269.369755,274.180955 Z" id="Blue-Copy" fill="#222" style="mix-blend-mode: darken;" transform="translate(165.570715, 251.903220) rotate(-45.000000) translate(-165.570715, -251.903220) "></path>
                <path d="M31.3568969,200.687519 C19.0726196,200.687519 9.11424532,190.713438 9.11424532,178.409785 C9.11424532,166.106131 19.0726196,156.13205 31.3568969,156.13205 L31.3568969,156.13205 L238.954978,156.13205 C251.239255,156.13205 261.197629,166.106131 261.197629,178.409785 C261.197629,190.713438 251.239255,200.687519 238.954978,200.687519 L238.954978,200.687519 Z" id="Blue" fill="#222" style="mix-blend-mode: darken;"></path>
                <path d="M1.07863191,127.155407 C-11.2056453,127.155407 -21.1640196,117.181325 -21.1640196,104.877672 C-21.1640196,92.5740193 -11.2056453,82.5999377 1.07863191,82.5999377 L1.07863191,82.5999377 L208.676713,82.5999377 C220.96099,82.5999377 230.919364,92.5740193 230.919364,104.877672 C230.919364,117.181325 220.96099,127.155407 208.676713,127.155407 L208.676713,127.155407 Z" id="Blue-Copy-2" fill="#222" style="mix-blend-mode: darken;" transform="translate(104.877672, 104.877672) rotate(-45.000000) translate(-104.877672, -104.877672) "></path>
            </g>
        </g>
    </g>
</svg>